<?xml version="1.0" encoding="UTF-8" ?>
<!DOCTYPE svg PUBLIC "-//W3C//DTD SVG 1.1//EN" "http://www.w3.org/Graphics/SVG/1.1/DTD/svg11.dtd">
<svg width="343pt" height="343pt" viewBox="0 0 343 343" version="1.1" xmlns="http://www.w3.org/2000/svg">
<path fill="#010101" d=" M 159.41 9.45 C 202.91 5.82 247.46 20.95 279.90 50.08 C 321.70 86.55 341.57 145.42 331.80 199.87 C 326.27 230.58 311.99 259.83 290.61 282.62 C 252.52 324.34 191.56 342.73 136.59 330.50 C 85.01 319.36 39.72 281.74 20.61 232.37 C 11.19 209.56 8.12 184.56 9.20 160.03 C 12.71 105.25 46.05 53.16 95.00 28.01 C 114.79 17.16 136.96 11.16 159.41 9.45 Z" />
<path fill="#ffdf3f" d=" M 112.33 32.66 C 123.65 28.34 135.38 25.16 147.28 22.85 C 149.95 28.95 152.08 36.17 157.97 40.04 C 165.56 46.06 176.94 46.61 184.83 40.84 C 191.40 37.01 193.98 29.65 196.49 22.93 C 208.86 25.19 220.87 28.84 232.55 33.42 C 224.93 57.35 200.90 74.30 175.98 74.81 C 148.67 77.14 120.15 59.29 112.33 32.66 Z" />
<path fill="#ffdf3f" d=" M 43.28 92.30 C 57.73 69.05 78.33 49.00 103.44 37.66 C 114.08 64.52 141.03 83.95 170.04 84.78 C 200.52 86.17 229.68 66.35 241.41 38.49 C 248.00 41.35 255.49 44.61 257.91 52.04 C 275.91 93.59 275.74 143.12 255.95 184.02 C 254.85 186.23 253.34 188.19 251.77 190.08 C 251.14 182.11 251.91 174.13 251.58 166.15 C 249.37 140.44 233.53 116.51 210.92 104.12 C 185.80 89.60 152.58 91.01 128.97 107.97 C 116.97 115.47 108.68 127.19 101.60 139.17 C 92.02 140.64 81.83 142.53 74.68 149.68 C 70.67 154.46 68.05 160.18 65.52 165.83 C 50.58 166.06 35.65 166.02 20.71 165.98 C 22.29 140.10 29.51 114.37 43.28 92.30 Z" />
<path fill="#ffdf3f" d=" M 146.08 148.61 C 148.82 143.98 148.35 136.33 154.00 133.79 C 156.23 135.14 157.83 137.24 159.37 139.29 C 152.38 146.71 146.03 154.88 143.16 164.82 C 144.14 166.21 145.12 167.60 146.10 168.99 C 156.71 169.58 167.53 167.35 178.02 169.59 C 176.23 176.76 172.17 182.96 167.85 188.82 C 162.89 195.93 160.80 204.80 154.83 211.24 C 152.91 208.62 149.88 205.61 152.13 202.01 C 157.52 194.97 161.99 187.29 165.39 179.10 C 164.17 177.72 162.97 176.33 161.77 174.94 C 151.16 174.27 140.55 176.94 130.00 175.62 C 129.93 163.84 142.97 159.11 146.08 148.61 Z" />
<path fill="#ffdf3f" d=" M 190.50 138.10 C 203.77 138.96 213.44 149.13 223.65 156.48 C 219.83 165.18 209.04 165.65 202.60 171.56 C 191.56 178.53 197.59 193.82 196.67 204.39 C 197.11 207.11 194.93 212.51 191.63 210.34 C 189.20 209.36 188.62 206.41 188.93 204.08 C 190.51 184.77 190.48 165.34 188.93 146.03 C 188.63 143.28 189.72 140.67 190.50 138.10 Z" />
<path fill="#ffffff" d=" M 91.41 149.46 C 105.01 145.54 120.55 156.63 119.97 171.03 C 121.55 183.36 110.38 195.46 97.97 194.93 C 85.62 196.59 73.55 185.35 74.06 172.97 C 72.68 162.22 81.11 151.78 91.41 149.46 Z" />
<path fill="#010101" d=" M 194.44 165.78 C 195.68 160.66 192.52 151.57 199.10 149.03 C 204.99 149.60 210.63 153.92 212.57 159.63 C 207.29 163.25 201.28 168.11 194.44 165.78 Z" />
<path fill="#ffdf3f" d=" M 20.83 176.01 C 35.67 175.98 50.50 175.95 65.34 176.15 C 67.67 183.79 70.73 191.70 77.27 196.73 C 83.82 202.06 92.48 203.31 100.57 204.49 C 108.10 219.13 118.71 232.59 133.17 240.86 C 145.66 248.45 160.39 252.21 174.99 251.77 C 182.72 251.79 190.28 249.95 197.96 249.33 C 193.42 254.39 186.95 257.02 181.04 260.09 C 146.36 277.07 105.52 280.44 68.27 270.58 C 62.34 268.35 54.79 267.86 51.02 262.00 C 31.80 237.59 22.59 206.73 20.83 176.01 Z" />
</svg>
